# xmcd
#
# Track frame offsets:
#	150
#	11958
#	22683
#	34610
#	57090
#	69069
#	81730
#	92856
#	109170
#	120801
#	133649
#	148204
#	160933
#	173121
#	182556
#	196242
#	211817
#	224145
#	238008
#	250352
#
# Disc length: 3521
#
# Revision: 2
# Processed by: cddbd v1.5.1PL0 Copyright (c) Steve Scherf et al.
# Submitted via: Audio-CD-Archiv 2.10.438
# Normalized: r1:TDELIM( - )
#
DISCID=190dbf14
DTITLE=60 Songs From The Golden West - Country And Western Hits CD3
DYEAR=1900
DGENRE=country
TTITLE0=No Thanks To You - Linda Manning
TTITLE1=Wilderness Road - The Nashville Guitars
TTITLE2=A New Girl In Town - Buddy Meredith
TTITLE3=Red Light Lady Love - Joan Winston
TTITLE4=Greatest Man Alive - Dave Dudley
TTITLE5=Pretty Polly - Country Reunion
TTITLE6=Don't You Ever Get Tired - Bobby Bare
TTITLE7=Nashville - Hank Stone
TTITLE8=Oh Susanna - Country Reunion
TTITLE9=Too Much We Can Stand - Early Bird
TTITLE10=Rocky Mountains - Surprises
TTITLE11=I Need Some Good News Bad - Bobby Bare
TTITLE12=I Hate To See Me Go - Al Terry
TTITLE13=Bile'm Cabbage Down - Country Reunion
TTITLE14=If You're Coin' To Tulsa - Rick Johnson
TTITLE15=Mystery Maiden - Tom Lewis
TTITLE16=Linda's Red Dress - Roy Baham
TTITLE17=Fine Country Singin' - The Nashville Guitars
TTITLE18=How Come It Took So Long To Say Goodbye - Rick Pilgreen
TTITLE19=Red River Valley - Country Reunion
EXTD=
EXTT0=
EXTT1=
EXTT2=
EXTT3=
EXTT4=
EXTT5=
EXTT6=
EXTT7=
EXTT8=
EXTT9=
EXTT10=
EXTT11=
EXTT12=
EXTT13=
EXTT14=
EXTT15=
EXTT16=
EXTT17=
EXTT18=
EXTT19=
PLAYORDER=
